<?xml version="1.0" encoding="utf-8"?>
<!-- Generator: Adobe Illustrator 25.4.1, SVG Export Plug-In . SVG Version: 6.00 Build 0)  -->
<svg version="1.1" id="Layer_1" xmlns="http://www.w3.org/2000/svg" xmlns:xlink="http://www.w3.org/1999/xlink" x="0px" y="0px"
	 viewBox="0 0 288 115.25" style="enable-background:new 0 0 288 115.25;" xml:space="preserve">
<style type="text/css">
	.st0{fill:#EF3E42;}
	.st1{fill:none;stroke:#FFFFFF;stroke-width:1.2696;stroke-linecap:round;}
	.st2{fill:#FFFFFF;}
</style>
<g>
	<path class="st0" d="M43.76,102.84c2.49-2.49,8.11-6.73,13.48-8.36c6.16-1.87,22.1-4.73,25.82-21.05
		c2.93-12.82-2.6-27.22-3.24-33.67c-0.56-5.71,1.16-18.63,1.44-20.61c0.37-2.61-2.12-3.62-3.76-3c-2.74,1.03-8.61,2.9-15.33,3.03
		c-7.22,0.13-16.13-5.17-18.42-8.69c-2.28,3.53-11.2,8.83-18.42,8.69c-6.72-0.13-12.59-2-15.33-3.03c-1.65-0.62-4.14,0.39-3.76,3
		c0.28,1.97,2,14.9,1.44,20.61c-0.63,6.45-6.16,20.85-3.24,33.67c3.72,16.32,19.66,19.19,25.83,21.05
		C35.65,96.11,41.27,100.35,43.76,102.84"/>
	<path class="st1" d="M43.76,99.49c3.13-3.27,9.73-6.63,14.18-7.8c12.23-3.21,19.49-8.73,22.18-17.03c3.85-11.86-1.51-25.18-2.58-34
		c-0.73-6.04,0.74-17.79,0.99-19.14c0.54-2.89,0.2-3.27-2.17-2.42c-2.43,0.88-9.28,2.56-15.43,2.36
		c-5.97-0.19-12.91-3.84-17.16-7.28c-4.25,3.44-11.19,7.09-17.16,7.28c-6.16,0.19-13-1.49-15.43-2.36
		c-2.37-0.85-2.71-0.47-2.17,2.42c0.25,1.35,1.72,13.1,0.99,19.14c-1.07,8.83-6.44,22.14-2.58,34c2.69,8.29,9.95,13.82,22.18,17.03
		C34.03,92.86,40.63,96.22,43.76,99.49z"/>
	<path class="st2" d="M45.89,22.72c0.07,0.9,0.26,1.75,0.19,2.72c-0.3-0.67-0.9-1.38-1.72-1.42c-0.93,0-1.72,0.67-2.17,1.46
		c-0.19,1.34-0.11,2.58,0.07,3.88c0.6-0.11,1.05-0.71,1.61-1.01c1.35-0.9,3.62-0.19,4.22-2.09l0.08-0.11
		c0.19,0.52-0.08,1.2-0.3,1.72c-1.34,2.28-4.59,0.41-5.67,2.84c0.07,1.64-0.22,3.51,0.22,5c0.26,0.3,0.67,0.19,1.01,0.07
		c2.13-0.63,3.36-2.72,3.92-4.7h0.11c-0.11,1.23-0.11,2.54-0.34,3.69c-2.39,1.53-4.81,2.91-7.28,4.14c1.2-2.17,0.37-5.08,0.56-7.73
		c-0.11-1.49-0.11-2.84-0.11-4.37c-0.04-0.3-0.34-0.56-0.56-0.75c-0.26-0.11-0.56-0.11-0.82-0.19c0.19-0.3,0.6-0.6,0.97-0.75
		c1.83-1.16,3.77-2.09,5.6-3.14C45.93,21.97,45.7,22.49,45.89,22.72"/>
	<path class="st2" d="M72.92,26.9c0.6,1.72,0,3.62-0.11,5.41c-0.48,3.92-0.67,8.25,0.53,11.91c0.07,0.3-0.3,0.3-0.45,0.22
		c-0.93-0.52-1.34-1.61-1.72-2.5c-0.94-1.79-1.53-3.77-2.62-5.49l-0.11,0.22l0.11,8.03c0.08,0.26,0.41,0.45,0.6,0.56
		c-0.63,0.67-1.53,1.01-2.31,1.42c0-0.37,0.26-0.75,0.26-1.2c0-4.22,0-8.59-0.19-12.62c-0.19-0.63-0.9-0.67-1.38-0.9
		c0.71-0.56,1.46-1.05,2.28-1.42c0.34-0.15,0.6,0.19,0.67,0.45c0.82,1.76,1.49,3.62,2.43,5.34l0.19-0.11c0-2.72,0.49-5.41,0.26-8.18
		c-0.11-0.56-1.16-0.75-0.82-1.38c0.41-0.34,0.82-0.75,1.38-0.56C72.4,26.11,72.62,26.6,72.92,26.9"/>
	<path class="st2" d="M37.04,26.94c-0.11,0.37-0.3,0.82-0.41,1.23l0.11,10.86c0.08,0.3,0.04,0.63,0.3,0.86l0.53,0.3
		c-0.75,0.63-1.83,1.2-2.76,1.64l0.11-0.34l0.19-0.79L34.95,35c-0.37-0.41-0.78,0.15-1.16,0.26c-0.67,0.52-1.57,0.78-2.09,1.42
		c-0.04,1.83-0.19,3.85,0.11,5.56c0.11,0.37,0.45,0.52,0.78,0.63h0.26c-1.01,0.82-2.24,1.49-3.44,2.02
		c0.22-0.49,0.45-1.12,0.49-1.76l-0.22-10.57c0.04-0.49-0.56-0.71-0.82-0.97c0.93-0.75,2.01-1.31,3.1-1.76
		c-0.78,1.34-0.22,3.36-0.3,5.04l0.15,0.22c1.08-0.3,1.98-1.08,2.99-1.61l0.15-0.34l-0.04-3.77c-0.08-0.3-0.34-0.56-0.63-0.63h-0.26
		c-0.04-0.37,0.37-0.34,0.56-0.6C35.4,27.83,36.11,27.12,37.04,26.94"/>
	<path class="st2" d="M27.11,31.16c0.3,1.64,0.07,3.51,0.9,4.93c-1.27-0.67-1.04-2.2-2.24-2.99c-0.37-0.11-0.6,0.19-0.75,0.45
		c-0.11,4.37,0.19,8.36,0.26,12.62c0.11,0.26,0.37,0.45,0.63,0.48h0.45c-1.19,0.93-2.58,1.49-3.88,2.2c1.23-1.31,0.6-3.36,0.71-5.04
		l-0.15-8.77c-0.08-0.22,0-0.52-0.22-0.71c-1.08,0.34-1.12,1.64-1.57,2.5c-0.26,1.27-0.34,2.65-1.38,3.55h-0.15
		c0.97-1.75,0.15-4.07,0.75-5.97c2.13-1.2,4.26-2.58,6.5-3.66L27.11,31.16"/>
	<path class="st2" d="M64.89,35.45c1.64,3.77,1.38,8.59-0.26,12.28c-0.56,0.93-1.31,2.05-2.47,2.24c-0.9,0.15-1.72-0.22-2.35-0.82
		c-1.76-2.69-2.02-6.38-1.49-9.63c0.52-2.2,1.31-5.19,4.07-5.64C63.51,33.81,64.33,34.51,64.89,35.45 M62.17,35.3
		c-1.04,0.34-1.34,1.42-1.49,2.35c-0.48,3.06-0.82,6.76,0.11,9.67c0.26,0.52,0.56,1.46,1.38,1.38c1.01-0.3,1.08-1.38,1.38-2.2
		c0.63-3.17,0.71-6.87,0.08-10.08C63.29,35.86,62.92,35.26,62.17,35.3z"/>
	<path class="st2" d="M57.54,36.61c-0.11,0.52-0.45,1.08-0.52,1.72v6.38c0.07,2.24,0,4.55,0.22,6.68c0.15,0.26,0.33,0.45,0.63,0.6
		L57.8,52.1c-0.97,0.67-1.98,1.27-3.03,1.72c0.52-0.82,0.63-2.02,0.56-3.17l-0.11-8.66l-0.15-2.91c-0.15-0.3-0.41-0.49-0.63-0.67
		c0.78-0.67,1.75-1.01,2.58-1.61C57.2,36.79,57.35,36.61,57.54,36.61"/>
	<path class="st2" d="M53.43,39.37c0.3,1.57,0.15,3.32,0.3,4.85c-0.75-0.86-0.37-2.31-1.57-2.91c-0.41-0.11-0.67,0.22-0.9,0.48
		l-0.11,0.41l0.04,8.06l0.11,4.29c0.11,0.37,0.49,0.63,0.82,0.82c-0.82,0.75-1.83,1.34-2.88,1.64l0.26-1.34l-0.04-7.02l-0.11-5.71
		c-0.19-0.3-0.52-0.26-0.75-0.04c-1.04,1.04-0.82,2.61-1.49,3.77l-0.07-0.04c0.15-1.19-0.04-2.65-0.04-3.81l0.15-0.34
		c1.98-1.04,3.92-2.31,5.9-3.4L53.43,39.37"/>
	<path class="st2" d="M41.41,46.09c-0.49,0.86-0.49,1.94-0.71,2.87l-0.49,2.61l-1.34,7.43c-0.67,1.87-0.34,4.29-1.76,5.75
		c0.04-1.27-0.37-2.35-0.63-3.51l-2.02-7.65c-0.22-0.97-0.48-2.2-1.64-2.46v-0.15c1.12-0.63,2.13-1.53,3.4-1.87
		c-0.52,0.56-0.34,1.46-0.3,2.2c0.37,2.13,1.01,4.18,1.49,6.27l0.22,0.08c0.52-1.83,0.67-3.77,1.04-5.64
		c0.11-1.23,0.67-2.65,0.08-3.85c-0.11-0.19-0.3-0.3-0.52-0.3c0.86-0.75,1.9-1.27,2.91-1.79H41.41"/>
	<path class="st2" d="M71.47,51.8c0.33,0.63,0.33,1.53,0,2.2c-0.97,3.06-2.28,6.01-3.36,9.04c-0.04,1.53-0.08,3.28,0.07,4.85
		c0.04,0.3,0.45,0.52,0.6,0.75c-1.01,0.78-2.17,1.31-3.25,1.98c0.19-0.6,0.6-1.23,0.63-1.94c0-1.79,0-3.7-0.19-5.45
		c-0.9-1.94-1.83-3.85-2.88-5.71l-0.71-0.52c1.04-0.67,2.02-1.42,3.17-1.83c-0.15,0.75-0.56,1.76-0.08,2.54
		c0.6,1.08,0.94,2.24,1.61,3.29c0.33,0.15,0.33-0.34,0.52-0.49c0.75-2.35,2.02-4.44,2.28-6.95c0-0.86-0.37-1.68-1.2-2.02l0.08-0.41
		c0.6-0.41,1.45-0.37,2.09-0.04C71.2,51.17,71.28,51.58,71.47,51.8"/>
	<path class="st2" d="M30.81,55.39c0.04,3.44,0.04,6.83,0.19,10.3c0.11,0.26,0.08,0.6,0.45,0.71c0.37,0.11,0.63-0.15,0.93-0.3
		c1.31-1.34,0.63-3.58,2.13-4.82h0.3c-0.45,1.12-0.52,2.39-0.45,3.7c-0.07,0.37-0.04,0.78-0.11,1.16c-1.61,1.12-3.36,2.02-5.01,2.99
		l-0.11-0.07l0.11-1.72l-0.15-8.74l-0.07-3.7c-0.19-0.6-0.78-0.86-1.31-0.9c1.23-0.75,2.35-1.64,3.66-2.13
		C30.7,52.85,30.92,54.19,30.81,55.39"/>
	<path class="st2" d="M60.71,57.96c0,0.6-0.3,1.16-0.3,1.79v5.04l0.19,7.51c0.07,0.34,0.41,0.56,0.67,0.78
		c-0.82,0.63-1.68,1.12-2.61,1.46c0.26-0.78,0.11-1.57,0.11-2.46l-0.15-6.83l-0.19,0.04c-0.67,1.83-1.16,3.7-1.83,5.52
		c-0.37-0.11-0.6-0.56-0.75-0.89c-0.6-0.9-0.93-1.79-1.57-2.65l-0.3,0.19c0.15,2.99-0.07,5.75,0.19,8.74
		c0.19,0.26,0.52,0.45,0.71,0.67c-0.82,0.67-1.86,1.2-2.8,1.61c0.19-0.6,0.52-1.34,0.52-2.13l-0.07-6.35l-0.15-5.37
		c-0.15-0.52-0.71-0.79-1.16-0.97c0.67-0.48,1.42-1.23,2.27-1.27c0.86,1.46,1.72,2.91,2.58,4.41c0.3,0.15,0.3-0.3,0.45-0.41
		c0.63-2.39,1.35-4.7,2.05-7.09C59.18,58.67,59.97,58.3,60.71,57.96"/>
	<path class="st2" d="M18.9,59.68c-1.01,1.38-0.82,3.66-0.34,5.19c-0.63,0-0.97-0.63-1.38-0.97c-0.22-0.04-0.67,0.11-0.82-0.15
		c0.26-0.37,0.41-0.78,0.45-1.23c-0.07-0.6-0.26-1.23-0.9-1.53c-0.86-0.45-1.98-0.34-2.76,0.22c-0.63,0.63-1.08,1.42-0.75,2.31
		c1.19,2.69,4.59,3.47,5.97,6.2c0.79,2.02,0.6,4.55-0.71,6.27c-1.16,1.34-2.84,2.17-4.78,1.79c-1.16-0.22-2.31-1.23-2.65-2.39
		c-0.34-1.16,0.11-2.28,0.97-2.95c0.63-0.41,1.61-0.41,2.21,0c0.3,0.22,0.45,0.52,0.48,0.86c-0.19,0.3-0.48-0.04-0.74,0.11
		c-0.34,0.19-0.71,0.45-0.82,0.82c0.04,0.49-0.07,0.86,0.22,1.2c0.52,0.71,1.27,0.9,2.09,0.75c1.12-0.3,2.2-1.42,2.35-2.61
		c0.52-4.48-5.38-5.19-6.35-9.04c-0.45-1.75,0.19-3.51,1.64-4.48c1.42-0.93,3.28-0.86,4.81-0.19c0.49-0.41,1.16-0.75,1.8-0.6V59.68"
		/>
	<path class="st2" d="M24.8,54.83c-0.41,0.37-0.37,1.01-0.37,1.49c1.19,4.03,2.17,8.14,3.32,12.17c0.07,0.45,0.63,0.75,0.6,1.2
		c-0.97,0.63-1.98,1.23-3.06,1.64c0.79-1.23,0.31-2.53-0.06-3.8c-0.25-0.75-0.46-0.56-0.83-0.43c-0.5,0.18-1.12,0.61-1.37,0.71
		c-0.44,0.17-0.49,0.83-0.56,1.2c-0.17,0.83-1,2.93,0.28,3.47c0.19-0.04,0.26,0.11,0.45,0.04c-1.04,1.01-2.58,1.64-3.77,2.31
		c0.15-0.56,0.48-1.01,0.67-1.53c1.12-5.34,1.9-10.83,2.95-16.17C23.45,56.28,23.75,55.09,24.8,54.83 M24.06,60.68l-0.27,0.1
		c-0.31,1.66-0.77,3.85-0.77,5.51c0.63-0.27,1.34-0.49,1.79-1.08L24.06,60.68z"/>
	<path class="st2" d="M50.6,68.12c0.82,1.68,0.3,3.85-0.71,5.27c-0.41,0.78-1.76,1.04-1.53,2.13c0.56,2.28,1.19,4.74,3.29,6.16
		c0.49,0.26,1.16,0.26,1.75,0.19c-0.07,0.52-0.71,0.82-1.19,0.93c-2.61,0.15-3.99-2.69-4.97-4.59c-0.33-0.93-0.71-1.87-0.97-2.8
		l-0.19-0.19l-0.19,0.22c-0.04,1.9,0.11,3.88,0.04,5.79c0.11,0.37,0.63,0.3,0.63,0.63c-0.82,0.63-1.72,1.12-2.69,1.49
		c0.45-1.72-0.08-3.55,0.11-5.3c-0.08-2.91-0.08-6.05-0.19-9.04c-0.11-0.3-0.41-0.52-0.67-0.56h-0.49c0.49-0.63,1.35-1.05,2.05-1.46
		c1.31-0.71,3.21-1.2,4.59-0.34C49.81,67.04,50.3,67.59,50.6,68.12 M46.9,67.59c-0.41,0.04-0.9,0.26-1.01,0.67
		c-0.19,1.87-0.04,3.92,0.04,5.82c0.08,0.26,0.37,0.3,0.6,0.34c0.71-0.04,1.34-0.56,1.72-1.12c0.56-1.57,1.04-3.81,0.04-5.3
		C47.87,67.71,47.39,67.63,46.9,67.59z"/>
	<path class="st2" d="M40.48,76.48l1.57,6.91c0.04,0.34,0.45,0.6,0.63,0.75c-0.79,0.67-1.72,1.08-2.5,1.38
		c0.45-1.27-0.22-2.58-0.52-3.81c-0.11-0.37-0.6-0.15-0.78-0.04c-0.97,0.45-1.98,0.89-2.8,1.61c-0.15,1.34-0.6,2.69-0.49,4.03
		c0.19,0.34,0.49,0.48,0.82,0.45l-0.04,0.19c-1.16,0.78-2.31,1.49-3.55,2.02c0.08-0.45,0.53-0.75,0.71-1.19
		c0.9-2.32,1.16-4.85,1.64-7.32c0.6-3.47,1.38-6.87,1.94-10.34c0.45-0.97,0.71-2.05,1.61-2.84C38.98,71.14,39.95,73.72,40.48,76.48
		 M37.83,74.47l-0.26,0.75c-0.3,2.02-0.82,3.96-0.94,5.97c0.9-0.07,1.68-0.71,2.47-1.16c0.07-0.26,0.07-0.45,0-0.71
		C38.61,77.71,38.46,76,37.83,74.47z"/>
	<path class="st0" d="M47.24,103.15c0-1.63,1.33-2.84,2.9-2.84c1.55,0,2.88,1.21,2.88,2.84c0,1.65-1.33,2.86-2.88,2.86
		C48.57,106.01,47.24,104.8,47.24,103.15 M50.14,105.53c1.29,0,2.31-1.01,2.31-2.38c0-1.35-1.02-2.37-2.31-2.37
		c-1.3,0-2.32,1.02-2.32,2.37C47.82,104.52,48.83,105.53,50.14,105.53z M49.54,104.8h-0.5v-3.29h1.25c0.78,0,1.16,0.29,1.16,0.93
		c0,0.59-0.37,0.84-0.85,0.91l0.94,1.45h-0.56l-0.87-1.43h-0.57V104.8z M50.13,102.95c0.42,0,0.8-0.03,0.8-0.54
		c0-0.41-0.37-0.48-0.72-0.48h-0.68v1.02H50.13z"/>
	<path class="st2" d="M46.23,50.49c0.56,2.13,0.94,4.37,1.57,6.5c0.07,0.34,0.56,0.45,0.56,0.71c-0.86,0.67-1.79,1.23-2.76,1.61
		c0.11-0.64,0.3-1.49,0.19-2.28l-0.34-1.46c-0.11-0.26-0.45-0.15-0.63-0.07c-0.63,0.6-1.6,0.67-2.01,1.46
		c-0.04,1.08-0.6,2.02-0.37,3.17c0.22,0.45,0.71,0.37,1.16,0.45c-1.31,0.75-2.39,1.61-3.77,2.17h0.04c1.49-3.4,1.64-7.32,2.5-10.94
		c0.78-2.95,0.75-6.2,2.24-8.85l0.19-0.11C44.66,45.53,45.78,47.92,46.23,50.49 M44.41,49.14l-0.27,0.1
		c-0.31,1.66-0.76,3.85-0.76,5.51c0.62-0.27,1.34-0.49,1.79-1.07L44.41,49.14z"/>
	<path d="M257.48,45.78c0,2.56,0,4.65-0.16,5.74c-0.12,0.78-0.19,1.31-0.72,1.4c-0.25,0.03-0.59,0.13-0.84,0.13
		c-0.16,0-0.22,0.12-0.22,0.22c0,0.16,0.16,0.22,0.44,0.22c0.44,0,1.06-0.03,1.59-0.06c0.59-0.03,1.12-0.03,1.18-0.03
		c0.41,0,1.12,0,2.28,0.06c1.12,0.03,2.71,0.09,4.77,0.09c1.06,0,1.34,0,1.53-0.69c0.16-0.56,0.37-2.37,0.37-2.56
		c0-0.19-0.03-0.41-0.19-0.41c-0.16,0-0.22,0.09-0.28,0.41c-0.16,1.06-0.53,1.53-1.25,1.84c-0.72,0.28-2.03,0.28-2.74,0.28
		c-2.71,0-3.21-0.34-3.28-2.12c-0.03-0.53,0-3.62,0-4.52v-2.22c0-0.09,0.03-0.19,0.19-0.19c0.47,0,3.4,0.03,4.15,0.13
		c1.06,0.12,1.31,0.44,1.4,0.81c0.13,0.34,0.13,0.62,0.13,0.87c0,0.16,0.06,0.25,0.19,0.25c0.19,0,0.25-0.28,0.25-0.5
		c0-0.19,0.06-1.19,0.13-1.72c0.06-0.87,0.22-1.31,0.22-1.47s-0.06-0.22-0.16-0.22s-0.22,0.16-0.41,0.34
		c-0.28,0.28-0.68,0.31-1.34,0.38c-0.62,0.06-4.24,0.06-4.58,0.06c-0.16,0-0.16-0.09-0.16-0.28v-7.21c0-0.19,0.03-0.28,0.16-0.28
		c0.31,0,3.49,0.03,3.96,0.09c1.5,0.19,1.78,0.38,1.96,0.81c0.13,0.31,0.16,0.75,0.16,0.94c0,0.22,0.06,0.34,0.22,0.34l0.25-0.28
		c0.06-0.31,0.13-1.5,0.16-1.75c0.06-0.75,0.22-1.06,0.22-1.25l-0.13-0.25l-0.37,0.13c-0.22,0.03-0.72,0.12-1.25,0.16
		c-0.62,0.03-6.36,0-6.55,0c-0.16,0-1.93-0.06-3.18-0.06c-0.31,0-0.44,0.06-0.44,0.22l0.22,0.22c0.25,0,0.72,0.03,0.94,0.06
		c0.91,0.13,1.06,0.56,1.12,1.47c0.06,0.84,0.06,1.59,0.06,5.71V45.78z M249.68,41.11c0-4.12,0-4.87,0.06-5.71
		c0.06-0.94,0.22-1.31,0.94-1.47c0.34-0.06,0.5-0.06,0.68-0.06l0.25-0.22c0-0.16-0.16-0.22-0.47-0.22c-0.81,0-2.56,0.06-2.71,0.06
		c-0.12,0-1.9-0.06-3.12-0.06c-0.31,0-0.44,0.06-0.44,0.22l0.22,0.22c0.25,0,0.72,0.03,0.94,0.06c0.91,0.13,1.03,0.56,1.09,1.47
		c0.03,0.84,0.06,1.65,0.06,5.77v0.56c0,0.16-0.06,0.16-0.16,0.16h-11.45c-0.09,0-0.16,0-0.16-0.16v-0.56c0-4.12,0-4.93,0.03-5.77
		c0.06-0.94,0.22-1.31,0.97-1.47c0.31-0.06,0.5-0.06,0.69-0.06l0.22-0.22c0-0.16-0.13-0.22-0.44-0.22c-0.84,0-2.59,0.06-2.71,0.06
		c-0.16,0-1.9-0.06-3.15-0.06c-0.31,0-0.44,0.06-0.44,0.22l0.22,0.22c0.25,0,0.72,0.03,0.94,0.06c0.9,0.13,1.06,0.56,1.12,1.47
		c0.06,0.84,0.06,1.59,0.06,5.71v4.68c0,2.56,0,4.65-0.16,5.74c-0.13,0.78-0.19,1.28-0.72,1.4c-0.25,0.06-0.59,0.13-0.84,0.13
		c-0.16,0-0.22,0.12-0.22,0.22c0,0.16,0.16,0.22,0.44,0.22c0.84,0,2.59-0.09,2.75-0.09c0.12,0,1.87,0.09,3.4,0.09
		c0.31,0,0.44-0.09,0.44-0.22c0-0.09-0.06-0.22-0.22-0.22c-0.25,0-0.84-0.06-1.25-0.13c-0.81-0.12-0.91-0.62-1-1.4
		c-0.13-1.09-0.13-3.12-0.13-5.68V43.2l0.16-0.16h11.45l0.16,0.16v2.65c0,2.56,0,4.55-0.13,5.65c-0.09,0.78-0.19,1.31-0.75,1.43
		c-0.25,0.06-0.56,0.13-0.81,0.13c-0.16,0-0.22,0.12-0.22,0.22c0,0.16,0.12,0.22,0.44,0.22c0.81,0,2.59-0.09,2.71-0.09
		c0.16,0,1.9,0.09,3.4,0.09c0.31,0,0.47-0.09,0.47-0.22c0-0.09-0.06-0.22-0.25-0.22c-0.22,0-0.84-0.06-1.22-0.13
		c-0.84-0.12-0.91-0.62-1-1.4c-0.13-1.09-0.16-3.18-0.16-5.74V41.11z M221.76,34.65l3.43,0.06c2.62,0.06,3.21,0.65,3.31,1.47
		l0.03,0.28c0.03,0.37,0.09,0.47,0.22,0.47c0.13,0,0.25-0.12,0.25-0.34c0-0.31,0.09-2.21,0.09-3.03c0-0.16,0-0.31-0.13-0.31
		s-0.37,0.06-0.78,0.13c-0.44,0.06-1.06,0.12-1.96,0.12h-10.36c-0.31,0-1.37-0.03-2.15-0.12c-0.75-0.09-1.03-0.31-1.22-0.31
		c-0.09,0-0.22,0.34-0.28,0.5c-0.03,0.22-0.6,2.59-0.6,2.87c0,0.16,0.13,0.22,0.19,0.22c0.13,0,0.22-0.03,0.28-0.25
		c0.09-0.19,0.13-0.37,0.44-0.84c0.41-0.62,1.06-0.81,2.78-0.84l3.96-0.06v11.14c0,2.56,0,4.65-0.13,5.74
		c-0.09,0.78-0.25,1.31-0.81,1.44c-0.25,0.06-0.56,0.13-0.81,0.13c-0.16,0-0.22,0.09-0.22,0.19c0,0.16,0.13,0.22,0.44,0.22
		c0.81,0,2.71-0.09,2.84-0.09c0.16,0,1.9,0.09,3.4,0.09c0.31,0,0.44-0.09,0.44-0.22c0-0.09-0.03-0.22-0.22-0.22
		c-0.25,0-0.88-0.06-1.25-0.13c-0.84-0.12-0.97-0.62-1.06-1.4c-0.12-1.09-0.12-3.18-0.12-5.74V34.65z M199.24,51.31
		c0,0.5-0.22,0.63-0.56,0.81c-0.72,0.41-2,0.5-2.96,0.5c-2.53,0-4.84-0.75-7.02-2.78c-0.97-0.9-2.9-3.59-2.9-7.33
		c0-3.09,1.12-5.46,2.71-6.68c2.09-1.59,4.09-1.72,5.74-1.72c3.56,0,5.65,1.06,6.33,2.06c0.44,0.62,0.6,1.4,0.62,1.75
		c0,0.25,0.03,0.41,0.19,0.41c0.19,0,0.31-0.12,0.31-0.56c0-2.65,0.16-3.37,0.16-3.74c0-0.12-0.06-0.25-0.34-0.25
		c-0.68,0-1.65-0.16-2.21-0.28c-0.53-0.12-2.47-0.44-4.21-0.44c-2.09,0-4.84,0.19-7.3,1.68c-2.43,1.47-4.59,4.46-4.59,8.7
		c0,3.31,1.59,6.14,3.28,7.55c3.06,2.59,6.96,2.84,9.05,2.84c1.59,0,4.09-0.28,5.83-1.19c0.34-0.19,0.38-0.22,0.38-1.44v-2.96
		c0-1.12,0-1.9,0.03-2.75c0.06-0.94,0.28-1.34,1.03-1.47c0.31-0.06,0.5-0.06,0.69-0.06l0.22-0.22c0-0.19-0.13-0.22-0.44-0.22
		c-0.84,0-2.56,0.06-2.68,0.06c-0.16,0-1.99-0.06-3.24-0.06c-0.31,0-0.44,0.03-0.44,0.22l0.22,0.22c0.25,0,0.72,0.03,0.94,0.06
		c1.12,0.22,1.19,0.53,1.19,2.68V51.31z M162.24,37.36c0.84,0.94,3.93,4.18,7.11,7.52c2.9,3.03,6.86,6.93,7.14,7.17
		c1.53,1.4,1.81,1.62,2.09,1.62c0.19,0,0.22-0.16,0.22-1.9l0.06-15.53c0-1.59,0.06-2.12,0.97-2.31c0.31-0.06,0.53-0.06,0.65-0.06
		c0.19,0,0.31-0.16,0.31-0.25c0-0.16-0.22-0.19-0.5-0.19c-1.12,0-2.03,0.06-2.34,0.06c-0.31,0-1.62-0.06-2.87-0.06
		c-0.31,0-0.53,0.03-0.53,0.19c0,0.09,0.03,0.25,0.22,0.25c0.22,0,0.84,0.03,1.34,0.12c0.84,0.16,1,0.75,1.03,2.46l0.28,13.29
		c-0.84-0.87-3.78-4.03-6.49-6.83c-4.24-4.37-8.24-8.61-8.67-9.05c-0.28-0.28-0.75-0.81-1.06-0.81c-0.22,0-0.37,0.28-0.37,1.34
		v15.19c0,2.4-0.09,3.12-0.78,3.31c-0.4,0.12-0.9,0.16-1.12,0.16l-0.22,0.22c0,0.19,0.16,0.22,0.44,0.22c1.25,0,2.4-0.09,2.65-0.09
		c0.25,0,1.34,0.09,2.9,0.09c0.31,0,0.5-0.06,0.5-0.22l-0.22-0.22c-0.25,0-0.87-0.03-1.37-0.16c-0.75-0.19-1-0.84-1.06-3.03
		L162.24,37.36z M154.25,41.11c0-4.12,0-4.87,0.03-5.71c0.06-0.94,0.22-1.31,0.97-1.47c0.31-0.06,0.5-0.06,0.69-0.06l0.22-0.22
		c0-0.16-0.13-0.22-0.44-0.22c-0.84,0-2.62,0.06-2.74,0.06c-0.16,0-1.87-0.06-2.78-0.06c-0.31,0-0.44,0.06-0.44,0.22l0.22,0.22
		c0.19,0,0.53,0.03,0.84,0.09c0.59,0.13,0.81,0.53,0.87,1.44c0.06,0.84,0.06,1.59,0.06,5.71v4.68c0,2.56-0.03,4.65-0.16,5.74
		c-0.09,0.78-0.19,1.28-0.72,1.4c-0.25,0.06-0.59,0.13-0.84,0.13c-0.16,0-0.22,0.12-0.22,0.22c0,0.16,0.16,0.22,0.44,0.22
		c0.84,0,2.56-0.09,2.71-0.09c0.12,0,1.9,0.09,3.43,0.09c0.31,0,0.44-0.09,0.44-0.22c0-0.09-0.06-0.22-0.22-0.22
		c-0.25,0-0.84-0.06-1.25-0.13c-0.81-0.12-0.91-0.62-1-1.4c-0.13-1.09-0.13-3.18-0.13-5.74V41.11z M128.36,42.7
		c0-5.77,3.31-8.64,7.89-8.64c4.34,0,8.21,3.34,8.21,9.7c0,7.67-4.96,8.98-7.43,8.98C132.08,52.74,128.36,48.87,128.36,42.7z
		 M125.53,43.41c0,4.77,3.21,10.42,10.73,10.42c6.62,0,11.01-4.9,11.01-10.83c0-6.18-4.68-9.95-10.85-9.95
		C128.83,33.06,125.53,39.14,125.53,43.41z M104,38.45c0-2.4,0-5.58,0.03-6.65c0-0.34,0.09-0.5,0.37-0.62
		c0.25-0.13,1.41-0.22,2.03-0.22c3.71,0,7.27,0.44,10.2,3.52c1.28,1.34,3,3.9,3,7.86c0,2.87-0.88,5.87-2.5,7.46
		c-1.84,1.84-4.52,2.9-7.43,2.9c-3.68,0-4.9-0.65-5.3-1.25c-0.25-0.34-0.31-1.59-0.34-2.37c-0.03-0.59-0.06-3.46-0.06-6.77V38.45z
		 M101.38,44.44c0,2.99,0,5.46-0.16,6.77c-0.13,0.9-0.28,1.59-0.91,1.71c-0.28,0.06-0.65,0.13-0.94,0.13
		c-0.19,0-0.25,0.09-0.25,0.19c0,0.19,0.16,0.25,0.5,0.25c0.47,0,1.18-0.06,1.81-0.06c0.65-0.03,1.18-0.03,1.25-0.03
		c0.16,0,1.22,0.09,2.59,0.19c1.34,0.09,3,0.19,4.34,0.19c5.3,0,8.11-2.18,9.45-3.59c1.75-1.84,3.37-4.87,3.37-8.8
		c0-3.71-1.47-6.3-3.03-7.92c-3.71-3.84-9.42-3.56-12.51-3.56c-1.87,0-3.84,0.09-4.21,0.09c-0.16,0-2.12-0.09-3.52-0.09
		c-0.34,0-0.5,0.06-0.5,0.25l0.25,0.19c0.28,0,0.81,0.03,1.06,0.09c1.03,0.22,1.28,0.72,1.34,1.78c0.06,1,0.06,1.87,0.06,6.74V44.44
		z"/>
	<path d="M280.5,64.11c0-1.1,0.9-1.92,1.95-1.92c1.05,0,1.94,0.81,1.94,1.92c0,1.12-0.9,1.93-1.94,1.93
		C281.39,66.04,280.5,65.23,280.5,64.11 M282.45,65.72c0.87,0,1.56-0.68,1.56-1.61c0-0.91-0.69-1.6-1.56-1.6
		c-0.88,0-1.57,0.69-1.57,1.6C280.89,65.04,281.57,65.72,282.45,65.72z M282.05,65.23h-0.34v-2.22h0.85c0.52,0,0.78,0.19,0.78,0.63
		c0,0.4-0.25,0.57-0.58,0.61l0.63,0.98h-0.38l-0.59-0.96h-0.39V65.23z M282.45,63.98c0.29,0,0.54-0.02,0.54-0.36
		c0-0.27-0.25-0.32-0.48-0.32h-0.46v0.69H282.45z"/>
	<path d="M265.93,64.11c0-0.31,0.1-0.44,0.34-0.53c0.25-0.09,1.12-0.19,1.65-0.19c3.28,0,6.3,0.34,8.89,2.96
		c1.12,1.12,2.59,3.28,2.59,6.64c0,2.43-0.72,4.96-2.15,6.3c-1.65,1.56-3.9,2.4-6.42,2.4c-3.25,0-4.21-0.56-4.56-1.06
		c-0.22-0.28-0.28-1.25-0.31-1.9c-0.03-0.5-0.03-2.96-0.03-5.77V64.11z M263.44,74.78c0,2.56,0,4.65-0.16,5.74
		c-0.13,0.78-0.19,1.28-0.72,1.4c-0.25,0.06-0.59,0.13-0.84,0.13c-0.16,0-0.22,0.12-0.22,0.22c0,0.16,0.16,0.22,0.44,0.22
		c0.44,0,1.09-0.03,1.65-0.06c0.56,0,1.06-0.03,1.12-0.03c0.13,0,1.06,0.06,2.25,0.16c1.18,0.06,2.65,0.16,3.84,0.16
		c4.68,0,7.14-1.84,8.33-3.06c1.53-1.56,2.97-4.12,2.97-7.46c0-3.15-1.31-5.37-2.68-6.74c-3.24-3.28-8.27-3.03-11.01-3.03
		c-1.62,0-3.37,0.06-3.68,0.06c-0.16,0-1.93-0.06-3.18-0.06c-0.31,0-0.44,0.06-0.44,0.22l0.22,0.22c0.25,0,0.72,0.03,0.94,0.06
		c0.9,0.13,1.06,0.56,1.12,1.47c0.06,0.84,0.06,1.59,0.06,5.71V74.78z M240.04,71.7c0-5.77,3.31-8.64,7.89-8.64
		c4.34,0,8.21,3.34,8.21,9.7c0,7.67-4.96,8.98-7.43,8.98C243.75,81.74,240.04,77.87,240.04,71.7z M237.2,72.41
		c0,4.77,3.21,10.42,10.73,10.42c6.61,0,11.01-4.9,11.01-10.82c0-6.18-4.68-9.95-10.86-9.95C240.51,62.06,237.2,68.14,237.2,72.41z
		 M215.46,71.7c0-5.77,3.31-8.64,7.89-8.64c4.34,0,8.21,3.34,8.21,9.7c0,7.67-4.96,8.98-7.43,8.98
		C219.17,81.74,215.46,77.87,215.46,71.7z M212.62,72.41c0,4.77,3.21,10.42,10.73,10.42c6.62,0,11.01-4.9,11.01-10.82
		c0-6.18-4.68-9.95-10.85-9.95C215.93,62.06,212.62,68.14,212.62,72.41z M205.6,80.31c0,0.5-0.22,0.62-0.56,0.81
		c-0.72,0.4-2,0.5-2.96,0.5c-2.53,0-4.84-0.75-7.02-2.78c-0.97-0.9-2.9-3.59-2.9-7.33c0-3.09,1.12-5.46,2.71-6.68
		c2.09-1.59,4.09-1.71,5.74-1.71c3.56,0,5.65,1.06,6.33,2.06c0.44,0.62,0.59,1.4,0.62,1.75c0,0.25,0.03,0.41,0.19,0.41
		c0.19,0,0.31-0.12,0.31-0.56c0-2.65,0.16-3.37,0.16-3.74c0-0.12-0.06-0.25-0.34-0.25c-0.69,0-1.65-0.16-2.22-0.28
		c-0.53-0.12-2.46-0.44-4.21-0.44c-2.09,0-4.83,0.19-7.3,1.68c-2.43,1.47-4.59,4.46-4.59,8.7c0,3.31,1.59,6.14,3.28,7.55
		c3.06,2.59,6.96,2.84,9.05,2.84c1.59,0,4.09-0.28,5.84-1.19c0.34-0.19,0.37-0.22,0.37-1.43v-2.96c0-1.12,0-1.9,0.03-2.75
		c0.06-0.94,0.28-1.34,1.03-1.47c0.31-0.06,0.5-0.06,0.68-0.06l0.22-0.22c0-0.19-0.13-0.22-0.44-0.22c-0.84,0-2.56,0.06-2.68,0.06
		c-0.16,0-2-0.06-3.24-0.06c-0.31,0-0.44,0.03-0.44,0.22l0.22,0.22c0.25,0,0.72,0.03,0.94,0.06c1.12,0.22,1.19,0.53,1.19,2.68V80.31
		z M173.29,63.65l3.43,0.06c2.62,0.06,3.21,0.65,3.31,1.47l0.03,0.28c0.03,0.37,0.09,0.47,0.22,0.47s0.25-0.13,0.25-0.34
		c0-0.31,0.09-2.21,0.09-3.03c0-0.16,0-0.31-0.13-0.31s-0.37,0.06-0.78,0.13c-0.44,0.06-1.06,0.12-1.96,0.12h-10.36
		c-0.31,0-1.37-0.03-2.15-0.12c-0.75-0.09-1.03-0.31-1.22-0.31c-0.09,0-0.22,0.34-0.28,0.5c-0.03,0.22-0.59,2.59-0.59,2.87
		c0,0.16,0.13,0.22,0.19,0.22c0.13,0,0.22-0.03,0.28-0.25c0.09-0.19,0.12-0.37,0.44-0.84c0.4-0.62,1.06-0.81,2.78-0.84l3.96-0.06
		v11.14c0,2.56,0,4.65-0.13,5.74c-0.09,0.78-0.25,1.31-0.81,1.43c-0.25,0.06-0.56,0.13-0.81,0.13c-0.16,0-0.22,0.09-0.22,0.19
		c0,0.16,0.13,0.22,0.44,0.22c0.81,0,2.71-0.09,2.84-0.09c0.16,0,1.9,0.09,3.4,0.09c0.31,0,0.44-0.09,0.44-0.22
		c0-0.09-0.03-0.22-0.22-0.22c-0.25,0-0.88-0.06-1.25-0.13c-0.84-0.12-0.97-0.62-1.06-1.4c-0.12-1.09-0.12-3.18-0.12-5.74V63.65z
		 M154.51,82.83c1.5,0,3.21-0.19,4.37-0.94c1.96-1.28,2.56-2.96,2.56-4.52c0-2.28-1.15-4.12-4.49-6.39l-0.78-0.53
		c-2.71-1.84-3.56-2.81-3.56-4.49c0-1.87,1.65-2.87,3.65-2.87c2.47,0,3.37,1,3.56,1.31c0.16,0.28,0.37,1,0.4,1.31
		c0.03,0.22,0.06,0.34,0.25,0.34s0.22-0.19,0.22-0.59c0-1.81,0.13-2.68,0.13-2.81c0-0.16-0.06-0.19-0.28-0.19s-0.44,0-0.97-0.12
		c-0.65-0.16-1.75-0.31-2.84-0.31c-3.62,0-6.08,1.87-6.08,4.99c0,1.84,0.97,3.46,3.93,5.68l1.25,0.94c2.43,1.81,3.46,2.71,3.46,4.62
		c0,2-1.4,3.52-4.12,3.52c-1.84,0-3.9-0.69-4.33-2.62c-0.1-0.38-0.1-0.75-0.1-0.97c0-0.22-0.09-0.31-0.25-0.31
		c-0.16,0-0.22,0.16-0.22,0.44c-0.03,0.44-0.16,1.5-0.16,2.81c0,0.72,0.03,0.81,0.41,1C151.64,82.65,153.23,82.83,154.51,82.83z
		 M128.58,71.7c0-5.77,3.31-8.64,7.89-8.64c4.34,0,8.21,3.34,8.21,9.7c0,7.67-4.96,8.98-7.43,8.98
		C132.29,81.74,128.58,77.87,128.58,71.7z M125.74,72.41c0,4.77,3.21,10.42,10.73,10.42c6.62,0,11.01-4.9,11.01-10.82
		c0-6.18-4.68-9.95-10.85-9.95C129.05,62.06,125.74,68.14,125.74,72.41z M119.35,62.77c-0.06-0.5-0.22-0.72-0.41-0.72
		c-0.19,0-0.31,0.19-0.44,0.44l-7.98,16.44l-8.3-16.47c-0.16-0.31-0.37-0.41-0.56-0.41c-0.16,0-0.28,0.19-0.31,0.47l-2,17.31
		c-0.13,1-0.16,1.97-1.06,2.12c-0.41,0.06-0.59,0.09-0.81,0.09c-0.16,0-0.28,0.09-0.28,0.19c0,0.19,0.19,0.25,0.47,0.25
		c0.75,0,2.06-0.09,2.31-0.09c0.22,0,1.53,0.09,2.56,0.09c0.31,0,0.5-0.06,0.5-0.25l-0.22-0.19c-0.19,0-0.59-0.03-1.06-0.16
		c-0.4-0.09-0.65-0.34-0.65-0.75c0-0.44,0-0.94,0.03-1.34l1.06-11.98h0.13c0.47,1.09,2.68,5.55,3.49,7.24
		c0.68,1.43,2.5,4.84,3.21,6.14c0.53,0.97,0.68,1.22,0.94,1.22c0.25,0,0.4-0.25,0.97-1.4l6.61-13.54h0.06l1.31,13.42
		c0.06,0.5,0.03,0.9-0.13,0.94l-0.19,0.22c0,0.12,0.13,0.22,0.78,0.28c1,0.09,4.06,0.16,4.68,0.16c0.31,0,0.56-0.09,0.56-0.25
		l-0.22-0.19c-0.28,0-1,0-1.78-0.25c-1.12-0.38-1.31-1.81-1.4-2.75L119.35,62.77z"/>
</g>
</svg>
